<mxfile host="app.diagrams.net" modified="2023-10-09T16:49:54.984Z" agent="Mozilla/5.0 (Macintosh; Intel Mac OS X 10_15_7) AppleWebKit/605.1.15 (KHTML, like Gecko) Version/17.0 Safari/605.1.15" etag="TpPcW8iFD3dVP0LVm0r8" version="22.0.4" type="github">
  <diagram name="Pagina-1" id="GIBFP50uOtnZrcErWkJY">
    <mxGraphModel dx="1122" dy="761" grid="1" gridSize="10" guides="1" tooltips="1" connect="1" arrows="1" fold="1" page="1" pageScale="1" pageWidth="827" pageHeight="1169" math="0" shadow="0">
      <root>
        <mxCell id="0" />
        <mxCell id="1" parent="0" />
        <mxCell id="8mNQiIAJqrb__Uq2_laJ-1" value="Direct" style="swimlane;fontStyle=0;childLayout=stackLayout;horizontal=1;startSize=26;fillColor=#dae8fc;horizontalStack=0;resizeParent=1;resizeParentMax=0;resizeLast=0;collapsible=1;marginBottom=0;whiteSpace=wrap;html=1;strokeColor=#6c8ebf;" parent="1" vertex="1">
          <mxGeometry x="80" y="200" width="230" height="142" as="geometry">
            <mxRectangle x="80" y="200" width="70" height="30" as="alternateBounds" />
          </mxGeometry>
        </mxCell>
        <mxCell id="8mNQiIAJqrb__Uq2_laJ-2" value="idDirect" style="text;strokeColor=none;fillColor=none;align=left;verticalAlign=top;spacingLeft=4;spacingRight=4;overflow=hidden;rotatable=0;points=[[0,0.5],[1,0.5]];portConstraint=eastwest;whiteSpace=wrap;html=1;" parent="8mNQiIAJqrb__Uq2_laJ-1" vertex="1">
          <mxGeometry y="26" width="230" height="26" as="geometry" />
        </mxCell>
        <mxCell id="8mNQiIAJqrb__Uq2_laJ-3" value="Content (text, video/photo/audio)" style="text;strokeColor=none;fillColor=none;align=left;verticalAlign=top;spacingLeft=4;spacingRight=4;overflow=hidden;rotatable=0;points=[[0,0.5],[1,0.5]];portConstraint=eastwest;whiteSpace=wrap;html=1;" parent="8mNQiIAJqrb__Uq2_laJ-1" vertex="1">
          <mxGeometry y="52" width="230" height="26" as="geometry" />
        </mxCell>
        <mxCell id="8mNQiIAJqrb__Uq2_laJ-4" value="Timestamp" style="text;strokeColor=none;fillColor=none;align=left;verticalAlign=top;spacingLeft=4;spacingRight=4;overflow=hidden;rotatable=0;points=[[0,0.5],[1,0.5]];portConstraint=eastwest;whiteSpace=wrap;html=1;" parent="8mNQiIAJqrb__Uq2_laJ-1" vertex="1">
          <mxGeometry y="78" width="230" height="32" as="geometry" />
        </mxCell>
        <mxCell id="8mNQiIAJqrb__Uq2_laJ-6" value="Counter (per content visualizzato o no)" style="text;strokeColor=none;fillColor=none;align=left;verticalAlign=top;spacingLeft=4;spacingRight=4;overflow=hidden;rotatable=0;points=[[0,0.5],[1,0.5]];portConstraint=eastwest;whiteSpace=wrap;html=1;" parent="8mNQiIAJqrb__Uq2_laJ-1" vertex="1">
          <mxGeometry y="110" width="230" height="32" as="geometry" />
        </mxCell>
        <mxCell id="8mNQiIAJqrb__Uq2_laJ-7" value="Chat" style="swimlane;fontStyle=0;childLayout=stackLayout;horizontal=1;startSize=26;fillColor=#dae8fc;horizontalStack=0;resizeParent=1;resizeParentMax=0;resizeLast=0;collapsible=1;marginBottom=0;whiteSpace=wrap;html=1;strokeColor=#6c8ebf;" parent="1" vertex="1">
          <mxGeometry x="440" y="200" width="230" height="142" as="geometry">
            <mxRectangle x="80" y="200" width="70" height="30" as="alternateBounds" />
          </mxGeometry>
        </mxCell>
        <mxCell id="8mNQiIAJqrb__Uq2_laJ-8" value="idChat" style="text;strokeColor=none;fillColor=none;align=left;verticalAlign=top;spacingLeft=4;spacingRight=4;overflow=hidden;rotatable=0;points=[[0,0.5],[1,0.5]];portConstraint=eastwest;whiteSpace=wrap;html=1;" parent="8mNQiIAJqrb__Uq2_laJ-7" vertex="1">
          <mxGeometry y="26" width="230" height="26" as="geometry" />
        </mxCell>
        <mxCell id="8mNQiIAJqrb__Uq2_laJ-10" value="isGroup (bool)" style="text;strokeColor=none;fillColor=none;align=left;verticalAlign=top;spacingLeft=4;spacingRight=4;overflow=hidden;rotatable=0;points=[[0,0.5],[1,0.5]];portConstraint=eastwest;whiteSpace=wrap;html=1;" parent="8mNQiIAJqrb__Uq2_laJ-7" vertex="1">
          <mxGeometry y="52" width="230" height="32" as="geometry" />
        </mxCell>
        <mxCell id="8mNQiIAJqrb__Uq2_laJ-11" value="Name chat" style="text;strokeColor=none;fillColor=none;align=left;verticalAlign=top;spacingLeft=4;spacingRight=4;overflow=hidden;rotatable=0;points=[[0,0.5],[1,0.5]];portConstraint=eastwest;whiteSpace=wrap;html=1;" parent="8mNQiIAJqrb__Uq2_laJ-7" vertex="1">
          <mxGeometry y="84" width="230" height="32" as="geometry" />
        </mxCell>
        <mxCell id="8mNQiIAJqrb__Uq2_laJ-12" value="Timestamp" style="text;strokeColor=none;fillColor=none;align=left;verticalAlign=top;spacingLeft=4;spacingRight=4;overflow=hidden;rotatable=0;points=[[0,0.5],[1,0.5]];portConstraint=eastwest;whiteSpace=wrap;html=1;" parent="8mNQiIAJqrb__Uq2_laJ-7" vertex="1">
          <mxGeometry y="116" width="230" height="26" as="geometry" />
        </mxCell>
        <mxCell id="8mNQiIAJqrb__Uq2_laJ-13" value="Account" style="swimlane;fontStyle=0;childLayout=stackLayout;horizontal=1;startSize=26;fillColor=#dae8fc;horizontalStack=0;resizeParent=1;resizeParentMax=0;resizeLast=0;collapsible=1;marginBottom=0;whiteSpace=wrap;html=1;strokeColor=#6c8ebf;" parent="1" vertex="1">
          <mxGeometry x="827" y="200" width="230" height="272" as="geometry">
            <mxRectangle x="80" y="200" width="70" height="30" as="alternateBounds" />
          </mxGeometry>
        </mxCell>
        <mxCell id="8mNQiIAJqrb__Uq2_laJ-14" value="Username" style="text;strokeColor=none;fillColor=none;align=left;verticalAlign=top;spacingLeft=4;spacingRight=4;overflow=hidden;rotatable=0;points=[[0,0.5],[1,0.5]];portConstraint=eastwest;whiteSpace=wrap;html=1;" parent="8mNQiIAJqrb__Uq2_laJ-13" vertex="1">
          <mxGeometry y="26" width="230" height="26" as="geometry" />
        </mxCell>
        <mxCell id="8mNQiIAJqrb__Uq2_laJ-15" value="Password" style="text;strokeColor=none;fillColor=none;align=left;verticalAlign=top;spacingLeft=4;spacingRight=4;overflow=hidden;rotatable=0;points=[[0,0.5],[1,0.5]];portConstraint=eastwest;whiteSpace=wrap;html=1;" parent="8mNQiIAJqrb__Uq2_laJ-13" vertex="1">
          <mxGeometry y="52" width="230" height="32" as="geometry" />
        </mxCell>
        <mxCell id="8mNQiIAJqrb__Uq2_laJ-16" value="Phone Number" style="text;strokeColor=none;fillColor=none;align=left;verticalAlign=top;spacingLeft=4;spacingRight=4;overflow=hidden;rotatable=0;points=[[0,0.5],[1,0.5]];portConstraint=eastwest;whiteSpace=wrap;html=1;" parent="8mNQiIAJqrb__Uq2_laJ-13" vertex="1">
          <mxGeometry y="84" width="230" height="32" as="geometry" />
        </mxCell>
        <mxCell id="8mNQiIAJqrb__Uq2_laJ-19" value="Email" style="text;strokeColor=none;fillColor=none;align=left;verticalAlign=top;spacingLeft=4;spacingRight=4;overflow=hidden;rotatable=0;points=[[0,0.5],[1,0.5]];portConstraint=eastwest;whiteSpace=wrap;html=1;" parent="8mNQiIAJqrb__Uq2_laJ-13" vertex="1">
          <mxGeometry y="116" width="230" height="26" as="geometry" />
        </mxCell>
        <mxCell id="8mNQiIAJqrb__Uq2_laJ-20" value="Snapcode" style="text;strokeColor=none;fillColor=none;align=left;verticalAlign=top;spacingLeft=4;spacingRight=4;overflow=hidden;rotatable=0;points=[[0,0.5],[1,0.5]];portConstraint=eastwest;whiteSpace=wrap;html=1;" parent="8mNQiIAJqrb__Uq2_laJ-13" vertex="1">
          <mxGeometry y="142" width="230" height="26" as="geometry" />
        </mxCell>
        <mxCell id="8mNQiIAJqrb__Uq2_laJ-21" value="DOB" style="text;strokeColor=none;fillColor=none;align=left;verticalAlign=top;spacingLeft=4;spacingRight=4;overflow=hidden;rotatable=0;points=[[0,0.5],[1,0.5]];portConstraint=eastwest;whiteSpace=wrap;html=1;" parent="8mNQiIAJqrb__Uq2_laJ-13" vertex="1">
          <mxGeometry y="168" width="230" height="26" as="geometry" />
        </mxCell>
        <mxCell id="8mNQiIAJqrb__Uq2_laJ-22" value="Profile Image" style="text;strokeColor=none;fillColor=none;align=left;verticalAlign=top;spacingLeft=4;spacingRight=4;overflow=hidden;rotatable=0;points=[[0,0.5],[1,0.5]];portConstraint=eastwest;whiteSpace=wrap;html=1;" parent="8mNQiIAJqrb__Uq2_laJ-13" vertex="1">
          <mxGeometry y="194" width="230" height="26" as="geometry" />
        </mxCell>
        <mxCell id="8mNQiIAJqrb__Uq2_laJ-23" value="Link" style="text;strokeColor=none;fillColor=none;align=left;verticalAlign=top;spacingLeft=4;spacingRight=4;overflow=hidden;rotatable=0;points=[[0,0.5],[1,0.5]];portConstraint=eastwest;whiteSpace=wrap;html=1;" parent="8mNQiIAJqrb__Uq2_laJ-13" vertex="1">
          <mxGeometry y="220" width="230" height="26" as="geometry" />
        </mxCell>
        <mxCell id="gF0_HSsdIN5_ckF4kotu-1" value="" style="fontSize=12;html=1;endArrow=ERzeroToMany;endFill=1;startArrow=ERzeroToMany;rounded=0;edgeStyle=orthogonalEdgeStyle;exitX=1;exitY=0.5;exitDx=0;exitDy=0;entryX=1;entryY=0.5;entryDx=0;entryDy=0;" edge="1" parent="8mNQiIAJqrb__Uq2_laJ-13" target="8mNQiIAJqrb__Uq2_laJ-20">
          <mxGeometry width="100" height="100" relative="1" as="geometry">
            <mxPoint x="231.99999999999977" y="182.9999999999999" as="sourcePoint" />
            <mxPoint x="223" y="160" as="targetPoint" />
            <Array as="points">
              <mxPoint x="232" y="209" />
              <mxPoint x="295" y="209" />
              <mxPoint x="295" y="168" />
              <mxPoint x="230" y="168" />
            </Array>
          </mxGeometry>
        </mxCell>
        <mxCell id="8mNQiIAJqrb__Uq2_laJ-24" value="Verified" style="text;strokeColor=none;fillColor=none;align=left;verticalAlign=top;spacingLeft=4;spacingRight=4;overflow=hidden;rotatable=0;points=[[0,0.5],[1,0.5]];portConstraint=eastwest;whiteSpace=wrap;html=1;" parent="8mNQiIAJqrb__Uq2_laJ-13" vertex="1">
          <mxGeometry y="246" width="230" height="26" as="geometry" />
        </mxCell>
        <mxCell id="8mNQiIAJqrb__Uq2_laJ-25" value="Snap" style="swimlane;fontStyle=0;childLayout=stackLayout;horizontal=1;startSize=26;fillColor=#dae8fc;horizontalStack=0;resizeParent=1;resizeParentMax=0;resizeLast=0;collapsible=1;marginBottom=0;whiteSpace=wrap;html=1;strokeColor=#6c8ebf;" parent="1" vertex="1">
          <mxGeometry x="1230" y="250" width="230" height="236" as="geometry">
            <mxRectangle x="80" y="200" width="70" height="30" as="alternateBounds" />
          </mxGeometry>
        </mxCell>
        <mxCell id="8mNQiIAJqrb__Uq2_laJ-26" value="idStory" style="text;strokeColor=none;fillColor=none;align=left;verticalAlign=top;spacingLeft=4;spacingRight=4;overflow=hidden;rotatable=0;points=[[0,0.5],[1,0.5]];portConstraint=eastwest;whiteSpace=wrap;html=1;" parent="8mNQiIAJqrb__Uq2_laJ-25" vertex="1">
          <mxGeometry y="26" width="230" height="26" as="geometry" />
        </mxCell>
        <mxCell id="8mNQiIAJqrb__Uq2_laJ-27" value="Timestamp" style="text;strokeColor=none;fillColor=none;align=left;verticalAlign=top;spacingLeft=4;spacingRight=4;overflow=hidden;rotatable=0;points=[[0,0.5],[1,0.5]];portConstraint=eastwest;whiteSpace=wrap;html=1;" parent="8mNQiIAJqrb__Uq2_laJ-25" vertex="1">
          <mxGeometry y="52" width="230" height="28" as="geometry" />
        </mxCell>
        <mxCell id="8mNQiIAJqrb__Uq2_laJ-29" value="Filter" style="text;strokeColor=none;fillColor=none;align=left;verticalAlign=top;spacingLeft=4;spacingRight=4;overflow=hidden;rotatable=0;points=[[0,0.5],[1,0.5]];portConstraint=eastwest;whiteSpace=wrap;html=1;" parent="8mNQiIAJqrb__Uq2_laJ-25" vertex="1">
          <mxGeometry y="80" width="230" height="26" as="geometry" />
        </mxCell>
        <mxCell id="8mNQiIAJqrb__Uq2_laJ-30" value="Text" style="text;strokeColor=none;fillColor=none;align=left;verticalAlign=top;spacingLeft=4;spacingRight=4;overflow=hidden;rotatable=0;points=[[0,0.5],[1,0.5]];portConstraint=eastwest;whiteSpace=wrap;html=1;" parent="8mNQiIAJqrb__Uq2_laJ-25" vertex="1">
          <mxGeometry y="106" width="230" height="26" as="geometry" />
        </mxCell>
        <mxCell id="8mNQiIAJqrb__Uq2_laJ-31" value="MediaType (video o immagine)" style="text;strokeColor=none;fillColor=none;align=left;verticalAlign=top;spacingLeft=4;spacingRight=4;overflow=hidden;rotatable=0;points=[[0,0.5],[1,0.5]];portConstraint=eastwest;whiteSpace=wrap;html=1;" parent="8mNQiIAJqrb__Uq2_laJ-25" vertex="1">
          <mxGeometry y="132" width="230" height="26" as="geometry" />
        </mxCell>
        <mxCell id="8mNQiIAJqrb__Uq2_laJ-32" value="DualCamera" style="text;strokeColor=none;fillColor=none;align=left;verticalAlign=top;spacingLeft=4;spacingRight=4;overflow=hidden;rotatable=0;points=[[0,0.5],[1,0.5]];portConstraint=eastwest;whiteSpace=wrap;html=1;" parent="8mNQiIAJqrb__Uq2_laJ-25" vertex="1">
          <mxGeometry y="158" width="230" height="26" as="geometry" />
        </mxCell>
        <mxCell id="8mNQiIAJqrb__Uq2_laJ-33" value="Music" style="text;strokeColor=none;fillColor=none;align=left;verticalAlign=top;spacingLeft=4;spacingRight=4;overflow=hidden;rotatable=0;points=[[0,0.5],[1,0.5]];portConstraint=eastwest;whiteSpace=wrap;html=1;" parent="8mNQiIAJqrb__Uq2_laJ-25" vertex="1">
          <mxGeometry y="184" width="230" height="26" as="geometry" />
        </mxCell>
        <mxCell id="gF0_HSsdIN5_ckF4kotu-9" value="Location" style="text;strokeColor=none;fillColor=none;align=left;verticalAlign=top;spacingLeft=4;spacingRight=4;overflow=hidden;rotatable=0;points=[[0,0.5],[1,0.5]];portConstraint=eastwest;whiteSpace=wrap;html=1;" vertex="1" parent="8mNQiIAJqrb__Uq2_laJ-25">
          <mxGeometry y="210" width="230" height="26" as="geometry" />
        </mxCell>
        <mxCell id="8mNQiIAJqrb__Uq2_laJ-34" value="Notify" style="swimlane;fontStyle=0;childLayout=stackLayout;horizontal=1;startSize=26;fillColor=#dae8fc;horizontalStack=0;resizeParent=1;resizeParentMax=0;resizeLast=0;collapsible=1;marginBottom=0;whiteSpace=wrap;html=1;strokeColor=#6c8ebf;" parent="1" vertex="1">
          <mxGeometry x="440" y="390" width="230" height="160" as="geometry">
            <mxRectangle x="80" y="200" width="70" height="30" as="alternateBounds" />
          </mxGeometry>
        </mxCell>
        <mxCell id="8mNQiIAJqrb__Uq2_laJ-35" value="idNotify" style="text;strokeColor=none;fillColor=none;align=left;verticalAlign=top;spacingLeft=4;spacingRight=4;overflow=hidden;rotatable=0;points=[[0,0.5],[1,0.5]];portConstraint=eastwest;whiteSpace=wrap;html=1;" parent="8mNQiIAJqrb__Uq2_laJ-34" vertex="1">
          <mxGeometry y="26" width="230" height="26" as="geometry" />
        </mxCell>
        <mxCell id="8mNQiIAJqrb__Uq2_laJ-36" value="Sender" style="text;strokeColor=none;fillColor=none;align=left;verticalAlign=top;spacingLeft=4;spacingRight=4;overflow=hidden;rotatable=0;points=[[0,0.5],[1,0.5]];portConstraint=eastwest;whiteSpace=wrap;html=1;" parent="8mNQiIAJqrb__Uq2_laJ-34" vertex="1">
          <mxGeometry y="52" width="230" height="32" as="geometry" />
        </mxCell>
        <mxCell id="8mNQiIAJqrb__Uq2_laJ-37" value="Category (messaggi/richieste amicizia/gioco/pubblicazione snap" style="text;strokeColor=none;fillColor=none;align=left;verticalAlign=top;spacingLeft=4;spacingRight=4;overflow=hidden;rotatable=0;points=[[0,0.5],[1,0.5]];portConstraint=eastwest;whiteSpace=wrap;html=1;" parent="8mNQiIAJqrb__Uq2_laJ-34" vertex="1">
          <mxGeometry y="84" width="230" height="46" as="geometry" />
        </mxCell>
        <mxCell id="8mNQiIAJqrb__Uq2_laJ-38" value="Timestamp" style="text;strokeColor=none;fillColor=none;align=left;verticalAlign=top;spacingLeft=4;spacingRight=4;overflow=hidden;rotatable=0;points=[[0,0.5],[1,0.5]];portConstraint=eastwest;whiteSpace=wrap;html=1;" parent="8mNQiIAJqrb__Uq2_laJ-34" vertex="1">
          <mxGeometry y="130" width="230" height="30" as="geometry" />
        </mxCell>
        <mxCell id="8mNQiIAJqrb__Uq2_laJ-41" value="" style="fontSize=12;html=1;endArrow=ERzeroToMany;startArrow=ERmandOne;rounded=0;entryX=1;entryY=0.5;entryDx=0;entryDy=0;" parent="1" edge="1">
          <mxGeometry width="100" height="100" relative="1" as="geometry">
            <mxPoint x="440" y="240" as="sourcePoint" />
            <mxPoint x="310" y="240" as="targetPoint" />
          </mxGeometry>
        </mxCell>
        <mxCell id="8mNQiIAJqrb__Uq2_laJ-43" value="" style="edgeStyle=entityRelationEdgeStyle;fontSize=12;html=1;endArrow=ERoneToMany;startArrow=ERzeroToMany;rounded=0;entryX=0.004;entryY=0.05;entryDx=0;entryDy=0;entryPerimeter=0;exitX=1.003;exitY=0.098;exitDx=0;exitDy=0;exitPerimeter=0;" parent="1" edge="1">
          <mxGeometry width="100" height="100" relative="1" as="geometry">
            <mxPoint x="670" y="239.99599999999992" as="sourcePoint" />
            <mxPoint x="827.2299999999998" y="240.97999999999996" as="targetPoint" />
          </mxGeometry>
        </mxCell>
        <mxCell id="gF0_HSsdIN5_ckF4kotu-3" value="isBlocked" style="text;strokeColor=none;fillColor=none;spacingLeft=4;spacingRight=4;overflow=hidden;rotatable=0;points=[[0,0.5],[1,0.5]];portConstraint=eastwest;fontSize=12;whiteSpace=wrap;html=1;" vertex="1" parent="1">
          <mxGeometry x="1057" y="370" width="65" height="30" as="geometry" />
        </mxCell>
        <mxCell id="gF0_HSsdIN5_ckF4kotu-4" value="" style="fontSize=12;html=1;endArrow=ERzeroToMany;endFill=1;startArrow=ERzeroToMany;rounded=0;edgeStyle=orthogonalEdgeStyle;entryX=1.004;entryY=0.923;entryDx=0;entryDy=0;entryPerimeter=0;exitX=1;exitY=0.5;exitDx=0;exitDy=0;" edge="1" parent="1">
          <mxGeometry width="100" height="100" relative="1" as="geometry">
            <mxPoint x="1059" y="463" as="sourcePoint" />
            <mxPoint x="1060" y="422" as="targetPoint" />
            <Array as="points">
              <mxPoint x="1122" y="463" />
              <mxPoint x="1122" y="422" />
            </Array>
          </mxGeometry>
        </mxCell>
        <mxCell id="gF0_HSsdIN5_ckF4kotu-5" value="Follow" style="text;strokeColor=none;fillColor=none;spacingLeft=4;spacingRight=4;overflow=hidden;rotatable=0;points=[[0,0.5],[1,0.5]];portConstraint=eastwest;fontSize=12;whiteSpace=wrap;html=1;" vertex="1" parent="1">
          <mxGeometry x="1062" y="424" width="50" height="30" as="geometry" />
        </mxCell>
        <mxCell id="gF0_HSsdIN5_ckF4kotu-6" value="Close&lt;br&gt;Friend" style="text;strokeColor=none;fillColor=none;spacingLeft=4;spacingRight=4;overflow=hidden;rotatable=0;points=[[0,0.5],[1,0.5]];portConstraint=eastwest;fontSize=12;whiteSpace=wrap;html=1;" vertex="1" parent="1">
          <mxGeometry x="1061" y="302" width="50" height="30" as="geometry" />
        </mxCell>
        <mxCell id="gF0_HSsdIN5_ckF4kotu-7" value="" style="fontSize=12;html=1;endArrow=ERzeroToMany;endFill=1;startArrow=ERzeroToMany;rounded=0;edgeStyle=orthogonalEdgeStyle;entryX=1.004;entryY=0.923;entryDx=0;entryDy=0;entryPerimeter=0;exitX=1;exitY=0.5;exitDx=0;exitDy=0;" edge="1" parent="1">
          <mxGeometry width="100" height="100" relative="1" as="geometry">
            <mxPoint x="1058" y="341" as="sourcePoint" />
            <mxPoint x="1059" y="300" as="targetPoint" />
            <Array as="points">
              <mxPoint x="1121" y="341" />
              <mxPoint x="1121" y="300" />
            </Array>
          </mxGeometry>
        </mxCell>
        <mxCell id="gF0_HSsdIN5_ckF4kotu-8" value="" style="edgeStyle=entityRelationEdgeStyle;fontSize=12;html=1;endArrow=ERzeroToMany;startArrow=ERmandOne;rounded=0;exitX=1.004;exitY=0.205;exitDx=0;exitDy=0;exitPerimeter=0;startFill=0;endFill=0;" edge="1" parent="1" source="8mNQiIAJqrb__Uq2_laJ-16">
          <mxGeometry width="100" height="100" relative="1" as="geometry">
            <mxPoint x="1080" y="280" as="sourcePoint" />
            <mxPoint x="1230" y="290" as="targetPoint" />
          </mxGeometry>
        </mxCell>
        <mxCell id="gF0_HSsdIN5_ckF4kotu-10" value="" style="edgeStyle=entityRelationEdgeStyle;fontSize=12;html=1;endArrow=ERzeroToMany;startArrow=ERmandOne;rounded=0;startFill=0;endFill=0;entryX=0;entryY=0.5;entryDx=0;entryDy=0;exitX=1;exitY=0.25;exitDx=0;exitDy=0;" edge="1" parent="1" source="gF0_HSsdIN5_ckF4kotu-11" target="gF0_HSsdIN5_ckF4kotu-9">
          <mxGeometry width="100" height="100" relative="1" as="geometry">
            <mxPoint x="1170" y="650" as="sourcePoint" />
            <mxPoint x="1252" y="583" as="targetPoint" />
          </mxGeometry>
        </mxCell>
        <mxCell id="gF0_HSsdIN5_ckF4kotu-11" value="Map" style="swimlane;fontStyle=0;childLayout=stackLayout;horizontal=1;startSize=26;fillColor=#dae8fc;horizontalStack=0;resizeParent=1;resizeParentMax=0;resizeLast=0;collapsible=1;marginBottom=0;whiteSpace=wrap;html=1;strokeColor=#6c8ebf;" vertex="1" parent="1">
          <mxGeometry x="940" y="570" width="230" height="52" as="geometry">
            <mxRectangle x="80" y="200" width="70" height="30" as="alternateBounds" />
          </mxGeometry>
        </mxCell>
        <mxCell id="gF0_HSsdIN5_ckF4kotu-20" value="Location" style="text;strokeColor=none;fillColor=none;align=left;verticalAlign=top;spacingLeft=4;spacingRight=4;overflow=hidden;rotatable=0;points=[[0,0.5],[1,0.5]];portConstraint=eastwest;whiteSpace=wrap;html=1;" vertex="1" parent="gF0_HSsdIN5_ckF4kotu-11">
          <mxGeometry y="26" width="230" height="26" as="geometry" />
        </mxCell>
        <mxCell id="gF0_HSsdIN5_ckF4kotu-21" value="User" style="swimlane;fontStyle=0;childLayout=stackLayout;horizontal=1;startSize=26;fillColor=#dae8fc;horizontalStack=0;resizeParent=1;resizeParentMax=0;resizeLast=0;collapsible=1;marginBottom=0;whiteSpace=wrap;html=1;strokeColor=#6c8ebf;" vertex="1" parent="1">
          <mxGeometry x="825" y="10" width="230" height="148" as="geometry">
            <mxRectangle x="80" y="200" width="70" height="30" as="alternateBounds" />
          </mxGeometry>
        </mxCell>
        <mxCell id="gF0_HSsdIN5_ckF4kotu-22" value="First Name" style="text;strokeColor=none;fillColor=none;align=left;verticalAlign=top;spacingLeft=4;spacingRight=4;overflow=hidden;rotatable=0;points=[[0,0.5],[1,0.5]];portConstraint=eastwest;whiteSpace=wrap;html=1;" vertex="1" parent="gF0_HSsdIN5_ckF4kotu-21">
          <mxGeometry y="26" width="230" height="26" as="geometry" />
        </mxCell>
        <mxCell id="gF0_HSsdIN5_ckF4kotu-23" value="Last Name" style="text;strokeColor=none;fillColor=none;align=left;verticalAlign=top;spacingLeft=4;spacingRight=4;overflow=hidden;rotatable=0;points=[[0,0.5],[1,0.5]];portConstraint=eastwest;whiteSpace=wrap;html=1;" vertex="1" parent="gF0_HSsdIN5_ckF4kotu-21">
          <mxGeometry y="52" width="230" height="32" as="geometry" />
        </mxCell>
        <mxCell id="gF0_HSsdIN5_ckF4kotu-26" value="Gender" style="text;strokeColor=none;fillColor=none;align=left;verticalAlign=top;spacingLeft=4;spacingRight=4;overflow=hidden;rotatable=0;points=[[0,0.5],[1,0.5]];portConstraint=eastwest;whiteSpace=wrap;html=1;" vertex="1" parent="gF0_HSsdIN5_ckF4kotu-21">
          <mxGeometry y="84" width="230" height="32" as="geometry" />
        </mxCell>
        <mxCell id="gF0_HSsdIN5_ckF4kotu-28" value="Username" style="text;strokeColor=none;fillColor=none;align=left;verticalAlign=top;spacingLeft=4;spacingRight=4;overflow=hidden;rotatable=0;points=[[0,0.5],[1,0.5]];portConstraint=eastwest;whiteSpace=wrap;html=1;" vertex="1" parent="gF0_HSsdIN5_ckF4kotu-21">
          <mxGeometry y="116" width="230" height="32" as="geometry" />
        </mxCell>
        <mxCell id="gF0_HSsdIN5_ckF4kotu-31" value="" style="endArrow=classic;html=1;rounded=0;exitX=0;exitY=0.5;exitDx=0;exitDy=0;edgeStyle=orthogonalEdgeStyle;" edge="1" parent="1" source="gF0_HSsdIN5_ckF4kotu-28" target="8mNQiIAJqrb__Uq2_laJ-13">
          <mxGeometry width="50" height="50" relative="1" as="geometry">
            <mxPoint x="730" y="170" as="sourcePoint" />
            <mxPoint x="760" y="142" as="targetPoint" />
          </mxGeometry>
        </mxCell>
        <mxCell id="gF0_HSsdIN5_ckF4kotu-32" value="" style="endArrow=classic;html=1;rounded=0;exitX=0;exitY=0.055;exitDx=0;exitDy=0;exitPerimeter=0;entryX=1;entryY=0.131;entryDx=0;entryDy=0;entryPerimeter=0;" edge="1" parent="1" source="8mNQiIAJqrb__Uq2_laJ-13" target="8mNQiIAJqrb__Uq2_laJ-34">
          <mxGeometry width="50" height="50" relative="1" as="geometry">
            <mxPoint x="710" y="350" as="sourcePoint" />
            <mxPoint x="760" y="300" as="targetPoint" />
          </mxGeometry>
        </mxCell>
      </root>
    </mxGraphModel>
  </diagram>
</mxfile>
